<?xml version="1.0" encoding="UTF-8"?>
<svg id="_레이어_1" data-name="레이어_1" xmlns="http://www.w3.org/2000/svg" version="1.1" viewBox="0 0 375.87 256.32">
  <!-- Generator: Adobe Illustrator 30.5.1, SVG Export Plug-In . SVG Version: 2.1.4 Build 3)  -->
  <path d="M218.54,192.81l-61.95-.19-.08,63.65-31.67-.1-.04-63.36-30.28-.1v63.52s-32.17-.05-32.17-.05l-.03-130.13-62.28.07-.04-63.14,62.32-.03L62.38,0h251.54s.12,62.9.12,62.9l61.83.05-.08,63.16-61.84.05.02,130.08-33.03.08.04-63.58-30.24.04-.04,63.48-32.16.07.02-63.5h0ZM124.91,31.98h-30.27v31.21h30.27v-31.21h0ZM250.7,32l-.03,31.1,30.24.03.03-31.1-30.24-.03h0Z" fill="#e57551"/>
  <polygon points="124.91 31.98 124.91 63.19 94.64 63.19 94.64 31.98 124.91 31.98 124.91 31.98" fill="#17110d"/>
  <polygon points="250.7 32 280.94 32.03 280.91 63.13 250.67 63.1 250.7 32 250.7 32" fill="#16110d"/>
</svg>